<svg width="22" height="23" viewBox="0 0 22 23" fill="none" xmlns="http://www.w3.org/2000/svg">
<path d="M10.0977 6.46484C9.83984 6.20703 9.36719 6.20703 9.10938 6.46484C8.85156 6.72266 8.85156 7.19531 9.10938 7.45312L13.4492 11.75L9.10938 16.0898C8.85156 16.3477 8.85156 16.8203 9.10938 17.0781C9.36719 17.3359 9.83984 17.3359 10.0977 17.0781L14.9102 12.2656C15.0391 12.1367 15.125 11.9648 15.125 11.75C15.125 11.5781 15.0391 11.4062 14.9102 11.2773L10.0977 6.46484ZM11 0.75C4.89844 0.75 0 5.69141 0 11.75C0 17.8516 4.89844 22.75 11 22.75C17.0586 22.75 22 17.8516 22 11.75C22 5.69141 17.0586 0.75 11 0.75ZM11 21.375C5.67188 21.375 1.375 17.0781 1.375 11.75C1.375 6.46484 5.67188 2.125 11 2.125C16.2852 2.125 20.625 6.46484 20.625 11.75C20.625 17.0781 16.2852 21.375 11 21.375Z" fill="#6F6F6F" fill-opacity="0.2"/>
</svg>
